<?xml version="1.0" encoding="utf-8"?>
<!-- Generator: Adobe Illustrator 25.4.1, SVG Export Plug-In . SVG Version: 6.00 Build 0)  -->
<svg version="1.1" id="Layer_1" xmlns="http://www.w3.org/2000/svg" xmlns:xlink="http://www.w3.org/1999/xlink" x="0px" y="0px"
	 viewBox="0 0 2122.8999 462.4" style="enable-background:new 0 0 2122.8999 462.4;" xml:space="preserve">
<style type="text/css">
	.st0{fill:#003A70;}
	.st1{fill:#6AAAE4;}
</style>
<g>
	<g>
		<path class="st0" d="M175.3,403.6l68.2-120.5h23.7l-91.9-171.3L238.7,0.2c-2.6-0.1-5.2-0.1-7.9-0.1c-25.2,0-50.2,4.1-74,12.1
			C65.7,43,0.1,129.1,0.1,230.7C0,275.4,13,319.1,37.4,356.5l122-217.7L226,262.5l-97.1,175.2c69.1,34,150.6,31.2,217.3-7.3
			l-14.4-26.8L175.3,403.6L175.3,403.6z"/>
		<path class="st1" d="M422.1,101.7L422.1,101.7C381.7335,41.168,311.7304,2.0573,238.9,0.1l188.6,351.4
			C474.7,274.4,472.7,176.8,422.1,101.7L422.1,101.7z"/>
	</g>
	<path class="st0" d="M878,457.9l-48.6-112.8H597.8l-48.6,112.8h-67.4L685.4,0.7h55.8l203.6,457.2L878,457.9L878,457.9z
		 M620.5,291.9h186.1L713.9,75.3L620.5,291.9z"/>
	<path class="st0" d="M1183.7,188.8l-39.6,3.9c-31.1,3-53.5,12.5-67.1,28.5s-20.4,36.3-20.4,61v175.7h-65.5V141.4h63.6v55.1
		c16.9-37.2,51.3-57.7,103.1-61.6l21.4-1.3L1183.7,188.8z"/>
	<path class="st0" d="M1488,310.7h-223.7c4.8,67,38.1,100.5,99.9,100.5c36.3,0,69.2-11.9,98.6-35.7l20.1,46
		c-14.7,12.5-32.9,22.5-54.5,29.8c-21.3,7.3-43.6,11-66.1,11c-50.6,0-90.5-14.5-119.7-43.5s-43.8-69-43.8-120
		c0-32.4,6.4-61.2,19.1-86.3s30.7-44.5,53.8-58.4s49.4-20.8,78.8-20.8c42.8,0,76.4,13.8,100.8,41.5s36.6,65.9,36.6,114.8L1488,310.7
		L1488,310.7z M1291.8,205.3c-14.9,15.8-23.9,38.4-26.9,67.8h166.7c-1.3-29.4-8.8-52-22.4-67.8s-32.8-23.7-57.4-23.7
		C1326.7,181.7,1306.7,189.5,1291.8,205.3L1291.8,205.3z"/>
	<path class="st0" d="M1731,409.9l-3.2,49.9c-11.1,1.7-22.4,2.6-33.7,2.6c-41.1,0-71.7-10.1-91.8-30.2s-30.2-49.2-30.2-87.2V192
		h-61.6v-50.6h61.6V46.1h65.5v95.3h86.9V192h-86.9v150.5c0,46.3,21.4,69.4,64.2,69.4C1711.6,411.9,1721.3,411.2,1731,409.9z"/>
	<path class="st0" d="M2037.9,310.7h-223.7c4.8,67,38.1,100.5,99.9,100.5c36.3,0,69.2-11.9,98.6-35.7l20.1,46
		c-14.7,12.5-32.9,22.5-54.5,29.8c-21.3,7.3-43.6,11-66.1,11c-50.6,0-90.5-14.5-119.7-43.5s-43.8-69-43.8-120
		c0-32.4,6.4-61.2,19.1-86.3s30.7-44.5,53.8-58.4s49.4-20.8,78.8-20.8c42.8,0,76.4,13.8,100.8,41.5s36.6,65.9,36.6,114.8
		L2037.9,310.7L2037.9,310.7z M1841.7,205.3c-14.9,15.8-23.9,38.4-26.9,67.8h166.7c-1.3-29.4-8.8-52-22.4-67.8s-32.8-23.7-57.4-23.7
		C1876.6,181.7,1856.7,189.5,1841.7,205.3L1841.7,205.3z"/>
	<path class="st0" d="M2037.9,181.2l2.1-4c2,1.8,4.3,3.1,6.8,4c2.6001,0.9,5.3999,1.3,8.1001,1.2c3.6001,0,6.3999-0.7,8.3999-2.1
		c1.8999-1.4,3.1001-3.6,2.8999-6c0-1.4-0.5-2.7-1.3999-3.7c-1.1001-1-2.3-1.8-3.7-2.2c-2-0.7-4.1001-1.3-6.2-1.7
		c-2.8999-0.6-5.8-1.5-8.6-2.6c-2.1-0.8-4-2.1-5.5-3.9c-1.5-1.9-2.2-4.2-2.1-6.5c0-2.4,0.6-4.8,2-6.8c1.4-2.1,3.4-3.7,5.8-4.6
		c2.8-1.1,5.7-1.7,8.7-1.6c3,0,6,0.5,8.8,1.6c2.6001,0.9,4.8999,2.3,6.8999,4.2l-2,4c-1.8999-1.7-4.1001-3.1-6.5-4
		c-2.3-0.9-4.7-1.3-7.2-1.2c-3.5,0-6.3,0.7-8.2,2.2c-2,1.4-3.1,3.8-3,6.2c-0.1,2.1,0.9,4,2.6,5.1c2.4999,1.4,5.2001,2.5,7.9999,3
		c3.1001,0.7,6.2,1.6,9.2,2.6c2.1001,0.7,4,1.9,5.6001,3.6c1.5,1.7,2.3,4,2.2,6.4c0.1001,2.4-0.6001,4.8-2,6.7
		c-1.5,2-3.5,3.6-5.8,4.5c-2.8,1.1-5.8,1.6-8.8999,1.6C2047.8,186.9,2042.1,185,2037.9,181.2z"/>
	<path class="st0" d="M2118.6001,141.1h4.3v45.3h-4.8999l0.1001-35.1l-14.7,27.9h-3.7l-14.8-27.6l0.1001,34.8h-4.8999v-45.3h4.3999
		l17.1001,32.8L2118.6001,141.1z"/>
</g>
</svg>
