<?xml version="1.0" encoding="utf-8"?>
<!-- Generator: Adobe Illustrator 22.0.1, SVG Export Plug-In . SVG Version: 6.00 Build 0)  -->
<svg version="1.1" id="Layer_1" xmlns="http://www.w3.org/2000/svg" xmlns:xlink="http://www.w3.org/1999/xlink" x="0px" y="0px"
	 viewBox="0 0 515.3746948 92.6093369" style="enable-background:new 0 0 515.3746948 92.6093369;" xml:space="preserve">
<style type="text/css">
	.st0{fill:#CE1126;}
</style>
<path class="st0" d="M32.3240051,2.2264099c0.8699951-0.1860046,1.7510071-0.3390045,2.6409912-0.4660034l4.1640015,23.7549973
	c-0.9060059,0.0820007-1.7909851,0.237999-2.6479797,0.465004L32.3240051,2.2264099z M31.2539978,28.4384079
	c0.8730164-0.6220016,1.809021-1.1590042,2.8000183-1.6010056L22.0820007,5.9544067
	c-0.9519958,0.5049973-1.8789978,1.0479965-2.7839966,1.6259995L31.2539978,28.4384079z M24.4630127,41.5974045
	c0-0.8969955,0.0769958-1.7750015,0.2179871-2.6329956H0.8460083c-0.052002,0.8330002-0.0859985,1.6709976-0.0859985,2.5169983
	c0,0.7900009,0.0289917,1.5749969,0.0740051,2.3529968h23.7879944
	C24.5200195,43.1024094,24.4630127,42.3564072,24.4630127,41.5974045 M56.7690125,41.5974045
	c0,8.9209976-7.2319946,16.1520004-16.1530151,16.1520004c-7.9899902,0-14.6199951-5.8030014-15.9179993-13.4219971
	L2.3049927,52.5414047c0.4970093,1.7480011,1.1080017,3.447998,1.8250122,5.0920029l22.2550049-8.1610031L8.2180176,64.843399
	c1.151001,1.614006,2.414978,3.1380005,3.7849731,4.5600052l16.9869995-14.3590012L17.90802,74.4564056
	c1.7609863,1.2310028,3.6209717,2.326004,5.572998,3.2649994l10.4129944-18.237999L30.2610168,80.235405
	c2.2229919,0.6019974,4.5229797,1.0100021,6.8829956,1.215004l3.3899841-19.3920059l3.4020081,19.4050064
	c2.4700012-0.2060089,4.8760071-0.6370087,7.196991-1.2750092l-3.1549988-18.0029945l9.085022,15.8459969
	c2.4869995-1.1360016,4.8379822-2.5179977,7.0209961-4.1239929l-8.3380127-14.5270004l12.7489929,10.7659988
	c2.03302-2.0050049,3.8529968-4.2280045,5.4240112-6.6300049l-11.3940125-9.6169968l13.9470215,5.112999
	c1.2919922-2.677002,2.289978-5.5240021,2.9679871-8.4909973l-12.243988-4.4830017l13.0109863-0.0009995
	c0.1669922-1.4970016,0.2610168-3.0149994,0.2610168-4.5559998c0-1.7830048-0.1270142-3.5350037-0.3510132-5.2560043H55.8510132
	C56.4429932,37.9064026,56.7690125,39.7124023,56.7690125,41.5974045 M24.8789978,37.9624023
	c0.32901-1.4300003,0.8439941-2.7879944,1.5240173-4.0459976l-22.434021-8.2259979
	c-0.5629883,1.3209991-1.0559998,2.6800003-1.4769897,4.0699997L24.8789978,37.9624023z M70.6450195,15.1144028
	L52.3829956,30.5384064c0.4490051,0.4769974,0.8699951,0.9799957,1.2590027,1.5089951l18.2550049-15.4149933
	C71.4920044,16.1164017,71.0750122,15.6094055,70.6450195,15.1144028 M61.6010132,7.3684082
	c-0.6419983-0.4020004-1.2920227-0.7900009-1.9570007-1.154007L47.6740112,27.0654068
	c0.6860046,0.3339996,1.3450012,0.7129974,1.9729919,1.137001L61.6010132,7.3684082z M29.6589966,29.7324066L11.3420105,14.2564011
	c-0.848999,0.927002-1.6549988,1.8930054-2.4160156,2.8960037l18.2740173,15.447998
	C27.9049988,31.549408,28.7319946,30.5884018,29.6589966,29.7324066 M42.230011,25.5244064
	c0.8160095,0.0810013,1.6139832,0.2229996,2.3899841,0.4199982L48.7799988,2.197403
	c-0.7869873-0.1639938-1.5839844-0.3039932-2.3869934-0.4219971L42.230011,25.5244064z M196.6459961,36.5404053
	c-1.1300049,0.1989975-2.29599,0.3010025-3.4960022,0.3010025c-5.5759888,0-8.3639832-2.9029999-8.3639832-8.7089996v-7.8920059
	h-3.7319946v-6.2210007h3.7319946V8.3144073h7.7200012v5.7049942h7.2070007l-1.9290161,6.2210007h-5.2779846v6.5630035
	c0,1.3440018,0.2149963,2.2799988,0.6439819,2.8089981c0.4300232,0.5299988,1.15802,0.7939987,2.1880188,0.7939987
	c1.17099,0,2.3169861-0.2149963,3.4320068-0.6439972l0.7719727,5.9629974
	C198.7409973,36.0684052,197.776001,36.3394012,196.6459961,36.5404053 M112.4750061,25.6014023l5.7049866,10.5530014h9.4380188
	l-8.1080017-12.9120026c1.572998-0.9149933,2.7879944-2.1379929,3.6470032-3.6669998
	c0.8580017-1.5309982,1.2859802-3.1959991,1.2859802-4.9979935c0-1.7160034-0.2929993-3.2600021-0.8789978-4.6330032
	c-0.5869751-1.3730011-1.4230042-2.5309982-2.5090027-3.473999c-1.0869751-0.9449997-2.4169922-1.6660004-3.9899902-2.1669998
	c-1.572998-0.5-3.3609924-0.75-5.3619995-0.75H99.9500122v32.6009979h8.2359924V25.6444016h2.3590088L112.4750061,25.6014023z
	 M108.1860046,10.072403h2.4450073c3.71698,0,5.5759888,1.487999,5.5759888,4.461998
	c0,3.0610046-1.8869934,4.590004-5.6619873,4.590004h-2.3590088V10.072403z M151.6820068,14.0194016h-7.2489929l-0.085022,2.5740051
	c-0.6589966-1.0299988-1.5379944-1.8280029-2.6389771-2.4029999c-1.1010132-0.5709991-2.322998-0.8570023-3.6679993-0.8570023
	c-1.4590149,0-2.8170166,0.3000031-4.0740051,0.901001c-1.2590027,0.5999985-2.3529968,1.4300003-3.2820129,2.487999
	c-0.9299927,1.0579987-1.651001,2.3089981-2.1669922,3.7529984c-0.5140076,1.4449997-0.7720032,3.0100021-0.7720032,4.6969986
	c0,1.7170029,0.25,3.2890015,0.7510071,4.7190018c0.5,1.4309998,1.1940002,2.6590042,2.0809937,3.689003
	c0.8860168,1.0289993,1.9440002,1.8300018,3.1740112,2.4020004c1.2290039,0.5719986,2.5879822,0.8590012,4.0759888,0.8590012
	c1.4290161,0,2.7080078-0.2799988,3.8380127-0.8380051c1.1300049-0.5569992,2.0229797-1.3509979,2.6819763-2.3799973
	l0.085022,2.5309982h7.2489929V14.0194016z M143.1459961,28.6254044c-0.8299866,0.9020004-1.901001,1.3509979-3.21698,1.3509979
	c-1.3160095,0-2.3950195-0.4489975-3.2400208-1.3509979c-0.84198-0.9000015-1.2639771-2.0800018-1.2639771-3.538002
	c0-1.4589996,0.4219971-2.6389999,1.2639771-3.5390015c0.8450012-0.9019928,1.9240112-1.3509979,3.2400208-1.3509979
	c1.315979,0,2.3869934,0.4490051,3.21698,1.3509979c0.82901,0.9000015,1.2449951,2.0800018,1.2449951,3.5390015
	C144.3909912,26.5454025,143.9750061,27.7254028,143.1459961,28.6254044 M273.5390015,16.6794052
	c-1.0859985-1.0579987-2.3739929-1.8799973-3.8619995-2.4670029c-1.4869995-0.5849991-3.1019897-0.8789978-4.8450012-0.8789978
	c-1.7480164,0-3.3630066,0.2939987-4.8479919,0.8789978c-1.4880066,0.5870056-2.7750244,1.4090042-3.8610229,2.4670029
	c-1.0869751,1.0579987-1.9379883,2.302002-2.552002,3.7320023c-0.6159973,1.4300003-0.9229736,2.987999-0.9229736,4.6759949
	c0,1.6870041,0.3069763,3.2450027,0.9229736,4.6750031c0.6140137,1.4300003,1.4650269,2.673996,2.552002,3.7330017
	c1.0859985,1.0579987,2.3730164,1.8799973,3.8610229,2.4659958c1.4849854,0.5860062,3.0999756,0.8800049,4.8479919,0.8800049
	c1.7430115,0,3.3580017-0.2939987,4.8450012-0.8800049c1.4880066-0.5859985,2.776001-1.4079971,3.8619995-2.4659958
	c1.0859985-1.0590057,1.9369812-2.3030014,2.5509949-3.7330017c0.6159973-1.4300003,0.9230042-2.987999,0.9230042-4.6750031
	c0-1.6879959-0.3070068-3.2459946-0.9230042-4.6759949C275.4759827,18.9814072,274.625,17.7374039,273.5390015,16.6794052
	 M268.3479919,28.9054031c-0.8869934,0.9720001-2.0589905,1.4580002-3.5159912,1.4580002
	c-1.4590149,0-2.6319885-0.4860001-3.5190125-1.4580002c-0.8869934-0.9720001-1.3289795-2.2449951-1.3289795-3.8180008
	c0-1.5719986,0.4419861-2.8460007,1.3289795-3.8180008c0.8870239-0.9720001,2.0599976-1.4589996,3.5190125-1.4589996
	c1.4570007,0,2.6289978,0.4869995,3.5159912,1.4589996c0.8860168,0.9720001,1.32901,2.2460022,1.32901,3.8180008
	C269.677002,26.660408,269.2340088,27.933403,268.3479919,28.9054031 M300.0279846,15.6924057
	c1.3010254,1.5739975,1.9510193,3.9039993,1.9510193,6.9919968v13.4700012h-7.7210083v-12.012001
	c0-2.6299973-0.9859924-3.9449997-2.9609985-3.9449997c-1.0880127,0-1.9079895,0.3639984-2.4649963,1.0930023
	c-0.5580139,0.7289963-0.8370056,1.7799988-0.8370056,3.1529999v11.7109985h-7.7219849V14.0194016h7.552002l0.0849915,2.7470016
	c0.5709839-1.0879974,1.4069824-1.9319992,2.5069885-2.5319977c1.1020203-0.6009979,2.382019-0.901001,3.8410034-0.901001
	C296.802002,13.3334045,298.7259827,14.1204071,300.0279846,15.6924057 M216.5289917,36.1544037v-12.012001
	c0-2.6299973-0.9869995-3.9449997-2.9589844-3.9449997c-1.0880127,0-1.9089966,0.3639984-2.4670105,1.0930023
	c-0.5599976,0.7289963-0.8370056,1.7799988-0.8370056,3.1529999v11.7109985h-7.7219849V3.5534058h7.7219849v12.8259964
	c0.6290283-0.9720001,1.4860229-1.7229996,2.5730286-2.2529984c1.0859985-0.5289993,2.3169861-0.7929993,3.6899719-0.7929993
	c2.5450134,0,4.4690247,0.7870026,5.7680054,2.3590012C223.6000061,17.2664032,224.25,19.596405,224.25,22.6844025v13.4700012
	H216.5289917z M157.6029968,45.8094025h7.8150024L179.20401,14.0214081h-8.2829895l-4.2440186,11.7969971l-4.5010071-11.7969971
	h-8.4539795l9.09198,20.8879929L157.6029968,45.8094025z M99.9389954,49.0224075h8.6659851V81.622406h-8.6659851V49.0224075z
	 M113.5769958,59.4904099H121.125l0.0859985,2.7429962c0.5429993-1.0849991,1.3720093-1.9280014,2.4869995-2.5299988
	c1.1170044-0.5999985,2.4040222-0.9000015,3.8630066-0.9000015c2.5429993,0,4.4649963,0.7929993,5.7669983,2.3799973
	c1.302002,1.5870018,1.9530029,3.9120026,1.9530029,6.9700012V81.622406h-7.7200012V69.6124039
	c0-2.6319962-0.9880066-3.9459991-2.9599915-3.9459991c-1.0599976,0-1.8730164,0.3649979-2.4450073,1.0929947
	c-0.5740051,0.7300034-0.8590088,1.7810059-0.8590088,3.154007V81.622406h-7.7200012V59.4904099z M183.7460022,46.8794022h7.7200012
	V81.622406h-7.7200012V46.8794022z M196.355011,46.8794022h7.7210083V81.622406h-7.7210083V46.8794022z M213.4599915,56.0154037
	c-1.2279968,0-2.2589722-0.3939972-3.0879822-1.1800003c-0.8300171-0.7859955-1.2440186-1.7659988-1.2440186-2.9389954
	c0-1.1720047,0.4140015-2.1580048,1.2440186-2.9599991c0.82901-0.7980042,1.8599854-1.2000046,3.0879822-1.2000046
	c1.230011,0,2.2600098,0.4020004,3.0890198,1.2000046c0.8299866,0.8019943,1.243988,1.7879944,1.243988,2.9599991
	c0,1.1729965-0.4140015,2.1529999-1.243988,2.9389954C215.7200012,55.6214066,214.6900024,56.0154037,213.4599915,56.0154037
	 M209.6010132,59.4904099h7.7200012V81.622406h-7.7200012V59.4904099z M231.7910156,92.5174026
	c-1.5420227,0-3.1440125-0.1719971-4.802002-0.5159988c-1.65802-0.3419952-2.9460144-0.7579956-3.8610229-1.2429962
	l0.7720032-6.7350006c0.8870239,0.5159912,1.9730225,0.9369965,3.2610168,1.2649994
	c1.2859802,0.3289948,2.4710083,0.4939957,3.5579834,0.4939957c4.3190002,0,6.4770203-1.9029922,6.4770203-5.7049942v-1.029007
	c-0.6849976,0.9150085-1.585022,1.6240082-2.7019958,2.1230011c-1.1160278,0.5-2.3740234,0.7519989-3.7750244,0.7519989
	c-1.8859863,0-3.5869751-0.4579926-5.1029968-1.3730011c-1.5169983-0.9149933-2.723999-2.2319946-3.6239929-3.946991
	c-0.9029846-1.715004-1.3510132-3.7030029-1.3510132-5.9620056c0-2.1719971,0.428009-4.1529999,1.2860107-5.9400024
	c0.8580017-1.7869949,2.072998-3.2179947,3.6459961-4.2889938c1.5720215-1.0719986,3.3590088-1.6090012,5.3609924-1.6090012
	c1.3140259,0,2.5300293,0.2860031,3.6460266,0.8570023c1.1169739,0.572998,2.0019836,1.3720016,2.6589966,2.4029961
	l0.0859985-2.5729942h7.25v20.3289948c0,4.1760025-1.0810242,7.3359985-3.2400208,9.4800034
	C239.1759949,91.4444046,235.9960022,92.5174026,231.7910156,92.5174026 M232.822998,75.0594025
	c1.3139954,0,2.3860168-0.4199982,3.2160034-1.2649994c0.82901-0.8439941,1.2430115-1.9219971,1.2430115-3.2389984
	c0-1.4290009-0.4140015-2.602005-1.2430115-3.5169983c-0.8299866-0.9150009-1.9020081-1.3720016-3.2160034-1.3720016
	c-1.3179932,0-2.3959961,0.4570007-3.2399902,1.3720016c-0.8439941,0.9149933-1.2650146,2.0879974-1.2650146,3.5169983
	c0,1.3170013,0.4210205,2.3950043,1.2650146,3.2389984C230.427002,74.6394043,231.5050049,75.0594025,232.822998,75.0594025
	 M273.5690002,59.4904099h7.5480042l0.0859985,2.7429962c0.5440063-1.0849991,1.3729858-1.9280014,2.4869995-2.5299988
	c1.1170044-0.5999985,2.4039917-0.9000015,3.8619995-0.9000015c2.5440063,0,4.4660034,0.7929993,5.7680054,2.3799973
	c1.302002,1.5870018,1.9530029,3.9120026,1.9530029,6.9700012V81.622406h-7.7210083V69.6124039
	c0-2.6319962-0.9880066-3.9459991-2.9599915-3.9459991c-1.0580139,0-1.8730164,0.3649979-2.4440002,1.0929947
	c-0.572998,0.7300034-0.8590088,1.7810059-0.8590088,3.154007V81.622406h-7.7200012V59.4904099z M310.8439941,82.2234039
	c-2.4029846,0-4.5249939-0.4660034-6.3710022-1.3939972c-1.8429871-0.9309998-3.2879944-2.2669983-4.3299866-4.0110016
	c-1.0440063-1.7440033-1.5660095-3.8030014-1.5660095-6.177002c0-2.2299957,0.5010071-4.2319946,1.5020142-6.0039978
	c1.0009766-1.7750015,2.4289856-3.1749992,4.2869873-4.2040024c1.8599854-1.0289993,4.0039978-1.5439987,6.4349976-1.5439987
	c1.3430176,0,2.7160034,0.1570053,4.1180115,0.4720001c1.401001,0.314003,2.5589905,0.715004,3.473999,1.201004
	l-0.8999939,6.4759979c-1.8300171-0.8560028-3.7340088-1.2860031-5.7050171-1.2860031
	c-1.7170105,0-3.0679932,0.4300003-4.0539856,1.2860031c-0.9860229,0.8569946-1.480011,2.0299988-1.480011,3.5169983
	c0,1.5159988,0.5,2.6959991,1.5010071,3.5400009c1.0010071,0.8409958,2.3869934,1.2649994,4.1609802,1.2649994
	c1.802002,0,3.7470093-0.4290009,5.8340149-1.2869949l0.7720032,6.3049927
	c-1.0010071,0.5709991-2.1809998,1.0220032-3.5379944,1.3509979
	C313.6229858,82.058403,312.2449951,82.2234039,310.8439941,82.2234039 M377.5679932,75.3973999
	c1.9689941-2.8539963,2.9549866-6.2549896,2.9549866-10.1940002h-6.4699707c0,2.0559998-0.2710266,3.7970047-0.8140259,5.2250061
	l-4.7109985-5.3540039c3.9129944-2.112999,5.8690186-4.7689972,5.8690186-7.9679947
	c0-1.0859985-0.2080078-2.0699997-0.6210022-2.9550018c-0.4150085-0.8840027-1-1.6500015-1.757019-2.2929993
	c-0.7569885-0.6419983-1.6699829-1.1340027-2.7409973-1.4759979c-1.0709839-0.3440018-2.25-0.5149994-3.5339966-0.5149994
	c-1.2859802,0-2.492981,0.1869965-3.6210022,0.5569992c-1.1279907,0.371994-2.1059875,0.8929977-2.9329834,1.5629959
	c-0.8280029,0.6710052-1.4790039,1.4790039-1.9500122,2.4210052c-0.4709778,0.9419937-0.7059937,1.9979935-0.7059937,3.1689987
	c0,2.0279999,0.8840027,4.140995,2.6560059,6.3399963c-4.0549927,2.0859985-6.0840149,4.9690018-6.0840149,8.6529999
	c0,2.7709961,1.0290222,4.9690018,3.0859985,6.5970001c2.0559998,1.6279984,4.8390198,2.4410019,8.3510132,2.4410019
	c3.2290039,0,6.0549927-0.6989975,8.4830017-2.0979996l1.2839966,1.4140015h8.0969849L377.5679932,75.3973999z
	 M363.9450073,55.9704056c0.4279785-0.4420013,0.9849854-0.6620026,1.6699829-0.6620026s1.2140198,0.2130051,1.585022,0.6420059
	c0.3709717,0.4269943,0.5569763,1.0139999,0.5569763,1.7559967c0,0.7430038-0.1929932,1.3919983-0.5789795,1.947998
	c-0.3860168,0.5579987-1.0200195,1.1080017-1.9049988,1.651001c-0.7440186-0.8290024-1.2580261-1.5069962-1.5420227-2.0359955
	c-0.2859802-0.5270004-0.4289856-1.0490036-0.4289856-1.5630035
	C363.302002,56.9924088,363.5159912,56.4154053,363.9450073,55.9704056 M365.7000122,75.8694
	c-1.5700073,0-2.8050232-0.3579941-3.70401-1.0709991c-0.8999939-0.7129974-1.3500061-1.7139969-1.3500061-2.9989929
	c0-1.5130005,0.7000122-2.7990036,2.098999-3.8560028l6.4249878,7.2399979
	C368.2850037,75.6404037,367.1269836,75.8694,365.7000122,75.8694 M402.2250061,82.2944031
	c-1.401001,0-2.8320007-0.1139984-4.2900085-0.3419952c-1.4590149-0.2290039-2.8250122-0.5590057-4.0970154-0.9880066
	c-1.2709961-0.427002-2.3079834-0.9120026-3.1080017-1.4559937l0.7710266-6.9920044
	c1.3450012,0.887001,2.9599915,1.5940018,4.8459778,2.1230011c1.8890076,0.5299988,3.7189941,0.7939987,5.4909973,0.7939987
	c1.6029968,0,2.8310242-0.2639999,3.6910095-0.7939987c0.8559875-0.5289993,1.2860107-1.2789993,1.2860107-2.2519989
	c0-0.5720062-0.1809998-1.0569992-0.5370178-1.4580002c-0.3589783-0.4000015-0.9299927-0.7719955-1.7160034-1.1160049
	c-0.7859802-0.3429947-1.894989-0.7139969-3.322998-1.1139984c-3.5189819-1.0009918-6.0559998-2.3239975-7.6159973-3.9680023
	c-1.5559998-1.6449966-2.3359985-3.8099899-2.3359985-6.4999924c0-3.0579987,1.1080017-5.4749985,3.3250122-7.2470016
	c2.2149963-1.7720032,5.2389832-2.6600037,9.0709839-2.6600037c1.8300171,0,3.6670227,0.2310028,5.5120239,0.6860046
	c1.8439941,0.4580002,3.3939819,1.0739975,4.6529846,1.8450012l-1.1149902,6.7340012
	c-1.1730042-0.715004-2.5679932-1.2929993-4.1830139-1.7380066c-1.6149902-0.4419937-3.1229858-0.6639938-4.5229797-0.6639938
	c-2.9750061,0-4.4620056,0.9440002-4.4620056,2.8310013c0,0.7719955,0.3359985,1.385994,1.0079956,1.8439941
	c0.6730042,0.4570007,1.980011,0.9729996,3.9249878,1.5439987c3.8590088,1.1150017,6.6260071,2.4960022,8.2990112,4.1399994
	c1.6740112,1.6450043,2.5090027,3.8099976,2.5090027,6.4980011c0,3.2320023-1.151001,5.7480011-3.4519958,7.5500031
	C409.5509949,81.3934021,406.34198,82.2944031,402.2250061,82.2944031 M418.5639954,59.4774094h7.25l0.0859985,2.5309944
	c0.6570129-1.0319939,1.5509949-1.8250008,2.6809998-2.382c1.1270142-0.5569992,2.4079895-0.8359985,3.8370056-0.8359985
	c1.9140015,0,3.6309814,0.4780045,5.1479797,1.435997c1.5140076,0.9580078,2.7150269,2.3250008,3.6020203,4.0970078
	c0.8869934,1.772995,1.3299866,3.8179932,1.3299866,6.1329956c0,2.173996-0.428009,4.1539993-1.2879944,5.9409943
	c-0.8559875,1.7870026-2.071991,3.2160034-3.6440125,4.2900085c-1.571991,1.071991-3.3589783,1.6069946-5.3609924,1.6069946
	c-1.2019958,0-2.3249817-0.2350006-3.368988-0.7070007c-1.0440063-0.4729996-1.8950195-1.1210022-2.552002-1.9519958v12.4819946
	h-7.7200012V59.4774094z M430.315979,75.433403c1.3140259,0,2.3950195-0.4580002,3.2390137-1.3729935
	c0.8420105-0.9150085,1.2659912-2.0870056,1.2659912-3.5180054c0-1.4290009-0.4239807-2.602005-1.2659912-3.5169983
	c-0.8439941-0.9150009-1.9249878-1.3720016-3.2390137-1.3720016c-1.3149719,0-2.3869934,0.4570007-3.2159729,1.3720016
	c-0.8310242,0.9149933-1.2430115,2.0879974-1.2430115,3.5169983c0,1.4309998,0.4119873,2.6029968,1.2430115,3.5180054
	C427.9289856,74.9754028,429.0010071,75.433403,430.315979,75.433403 M455.0209961,82.2944031
	c-1.9160156,0-3.6300049-0.4790039-5.1470032-1.4349976c-1.5159912-0.9580002-2.7170105-2.3240051-3.6019897-4.0960007
	c-0.8870239-1.7750015-1.3300171-3.8199997-1.3300171-6.1350021c0-2.1719971,0.428009-4.1529999,1.2870178-5.9400024
	c0.8569946-1.7869949,2.072998-3.2169952,3.644989-4.2899933c1.572998-1.0709991,3.3599854-1.6080017,5.3619995-1.6080017
	c1.3139954,0,2.5299988,0.2850037,3.644989,0.8570023c1.1170044,0.5739975,2.0020142,1.3720016,2.6589966,2.4039955
	l0.0860291-2.5739937H468.875v22.1309967h-7.2489929l-0.0860291-2.5300064
	c-0.6569824,1.029007-1.5499878,1.8240051-2.6799927,2.3800049
	C457.7299805,82.0174026,456.4519958,82.2944031,455.0209961,82.2944031 M457.1229858,75.433403
	c1.3160095,0,2.3869934-0.4580002,3.2160034-1.3729935c0.82901-0.9150085,1.243988-2.0870056,1.243988-3.5180054
	c0-1.4290009-0.414978-2.602005-1.243988-3.5169983c-0.82901-0.9150009-1.8999939-1.3720016-3.2160034-1.3720016
	c-1.315979,0-2.3939819,0.4570007-3.2389832,1.3720016c-0.8440247,0.9149933-1.2640076,2.0879974-1.2640076,3.5169983
	c0,1.4309998,0.4199829,2.6029968,1.2640076,3.5180054C454.7290039,74.9754028,455.8070068,75.433403,457.1229858,75.433403
	 M483.8059692,82.2104034c-2.4039917,0-4.5259705-0.4660034-6.3709717-1.3939972
	c-1.8430176-0.9300003-3.2890015-2.2660065-4.3309937-4.0100021c-1.0440063-1.7450027-1.5650024-3.8040009-1.5650024-6.1780014
	c0-2.2299957,0.5-4.2319946,1.5009766-6.0039978c1-1.7740021,2.4290161-3.1749992,4.2880249-4.2040024
	c1.8599854-1.0279999,4.0029907-1.5439987,6.4349976-1.5439987c1.3429565,0,2.7149658,0.1560059,4.117981,0.4729996
	c1.401001,0.3130035,2.5579834,0.7140045,3.4730225,1.2000046l-0.8990479,6.4759979
	c-1.8309937-0.8560028-3.7340088-1.2860031-5.7069702-1.2860031c-1.7150269,0-3.0670166,0.4300003-4.052002,1.2860031
	c-0.9869995,0.8580017-1.4809875,2.0309982-1.4809875,3.5169983c0,1.5169983,0.5010071,2.6949997,1.5019836,3.5400009
	c1.0009766,0.8420029,2.3870239,1.2659988,4.1599731,1.2659988c1.8030396,0,3.7470093-0.4300003,5.835022-1.2879944
	l0.7709961,6.3049927c-1.0009766,0.5709991-2.1799927,1.0230026-3.5369873,1.3509979
	C486.5849609,82.0454025,485.2059937,82.2104034,483.8059692,82.2104034 M153.4100037,82.0024033
	c1.1300049-0.2009964,2.0950012-0.4729996,2.8970032-0.8160019l-0.7730103-5.961998
	c-1.1149902,0.4280014-2.2599792,0.6429977-3.4319763,0.6429977c-1.0300293,0-1.7580261-0.2639923-2.1870117-0.7939911
	c-0.4299927-0.5280075-0.644989-1.465004-0.644989-2.8090057v-6.5630035h5.2779846l1.9290161-6.220993h-7.2070007v-5.7050018
	h-7.7200012v5.7050018h-3.7320251v6.220993h3.7320251v7.8919983c0,5.8059998,2.7879944,8.7100067,8.3649902,8.7100067
	C151.1149902,82.3034058,152.2799988,82.2004089,153.4100037,82.0024033 M249.9889832,24.3974075
	c0-1.7160034-0.2509766-3.2540054-0.7509766-4.6119995c-0.5020142-1.3570023-1.2230225-2.5160065-2.1670227-3.4750061
	c-0.9449768-0.9570007-2.0889893-1.6930008-3.4309998-2.2089996c-1.3459778-0.5130005-2.8479919-0.7709961-4.5039673-0.7709961
	c-1.7180176,0-3.2820129,0.2859955-4.6990051,0.8570023c-1.4140015,0.5739975-2.6369934,1.371994-3.6669922,2.4029999
	c-1.0290222,1.0279999-1.8220215,2.2659988-2.3800049,3.7109985c-0.5580139,1.4430008-0.8370056,3.0390015-0.8370056,4.7819977
	c0,1.8030014,0.3070068,3.4319992,0.9219971,4.8899994c0.6140137,1.4580002,1.5020142,2.6969986,2.6600037,3.7099991
	c1.1569824,1.0169983,2.5589905,1.7960052,4.2030029,2.3390045c1.644989,0.5429993,3.4960022,0.8159943,5.5570068,0.8159943
	c1.7149963,0,3.3669739-0.2009964,4.9539795-0.6009979c1.5859985-0.4000015,2.9389954-0.9729996,4.053009-1.7159958
	l-2.4450073-4.9330063c-0.9160156,0.401001-1.9100037,0.7080002-2.9819946,0.9220047
	c-1.0710144,0.2129974-2.0360107,0.3199997-2.8940125,0.3199997c-3.5189819,0-6.625-1.2560043-7.3970032-3.7740021h15.5460205
	C249.9020081,26.3424072,249.9889832,25.4554062,249.9889832,24.3974075 M234.1820068,23.035408
	c0.5889893-2.9880066,2.2070007-4.4810028,4.8469849-4.4810028c1.28302,0,2.3260193,0.3899994,3.1270142,1.1709976
	c0.7980042,0.7830048,1.2839966,1.8860016,1.4589844,3.3100052H234.1820068z M179.8900146,69.8654022
	c0-1.7159958-0.2510071-3.2539978-0.7510071-4.6119995c-0.5020142-1.3569984-1.223999-2.5159988-2.1669922-3.4749985
	c-0.9440002-0.9570007-2.0890198-1.6930008-3.4320068-2.2089996c-1.3439941-0.5130005-2.8460083-0.7709961-4.5029907-0.7709961
	c-1.7170105,0-3.28302,0.2859955-4.7000122,0.8569946c-1.4129944,0.5740051-2.6359863,1.3720016-3.6669922,2.4029999
	c-1.0280151,1.0279999-1.8210144,2.2659988-2.3800049,3.7110062c-0.5570068,1.4429932-0.8359985,3.0389938-0.8359985,4.7819977
	c0,1.8029938,0.3070068,3.4319992,0.92099,4.8899994c0.6159973,1.4579926,1.5020142,2.6969986,2.6610107,3.7099991
	c1.1579895,1.0169983,2.5589905,1.7959976,4.2039795,2.3389969c1.6440125,0.5429993,3.4960022,0.8160019,5.5550232,0.8160019
	c1.7160034,0,3.367981-0.2009964,4.9539795-0.6010056c1.5859985-0.3999939,2.9390259-0.9729919,4.0540161-1.7159958
	l-2.4450073-4.9329987c-0.9159851,0.401001-1.9089966,0.7080002-2.9830017,0.9220047
	c-1.0700073,0.2129974-2.0350037,0.3199921-2.8939819,0.3199921c-3.5190125,0-6.625-1.2559967-7.3970032-3.7740021h15.5469971
	C179.803009,71.8104095,179.8900146,70.9234009,179.8900146,69.8654022 M164.0820007,68.5034027
	c0.5890198-2.987999,2.2080078-4.4810028,4.8479919-4.4810028c1.2820129,0,2.3260193,0.3899994,3.1270142,1.1710052
	c0.7969971,0.7830048,1.2839966,1.8860016,1.4589844,3.3099976H164.0820007z M270.3070068,69.872406
	c0-1.7160034-0.2510071-3.2539978-0.7510071-4.6110001c-0.5020142-1.3580017-1.2229919-2.5170021-2.1669922-3.4760017
	c-0.9440002-0.9569969-2.0890198-1.6919975-3.4309998-2.2089958c-1.3450012-0.5130005-2.8470154-0.7700043-4.5030212-0.7700043
	c-1.7179871,0-3.2829895,0.2850037-4.6999817,0.8560028c-1.4140015,0.5739975-2.6360168,1.3720016-3.6669922,2.4029961
	c-1.0290222,1.0290031-1.8220215,2.2660027-2.3800049,3.7110023c-0.5570068,1.4440002-0.8359985,3.0389938-0.8359985,4.7829971
	c0,1.802002,0.3059998,3.4309998,0.92099,4.8890076c0.6159973,1.4579926,1.5019836,2.696991,2.6610107,3.7099915
	c1.1569824,1.0180054,2.5579834,1.7960052,4.2030029,2.3390045c1.6439819,0.5429993,3.4959717,0.8159943,5.5559998,0.8159943
	c1.7149963,0,3.367981-0.2009964,4.9539795-0.6009979c1.5859985-0.3999939,2.9389954-0.9729996,4.053009-1.7160034
	l-2.4440002-4.9329987c-0.9160156,0.401001-1.9089966,0.7080078-2.9830017,0.9220047
	c-1.0710144,0.2130051-2.0360107,0.3209991-2.8940125,0.3209991c-3.5189819,0-6.625-1.2569962-7.3970032-3.7750015h15.5460205
	C270.2200012,71.8174057,270.3070068,70.9314041,270.3070068,69.872406 M254.5,68.5114059
	c0.5889893-2.989006,2.2070007-4.4820023,4.8469849-4.4820023c1.28302,0,2.3260193,0.3899994,3.1270142,1.1710052
	c0.7980042,0.7829971,1.2839966,1.885994,1.4589844,3.310997H254.5z M342.2860107,69.8654022
	c0-1.7159958-0.2510071-3.2539978-0.7510071-4.6119995c-0.5020142-1.3569984-1.2229919-2.5159988-2.1669922-3.4749985
	c-0.9450073-0.9570007-2.0890198-1.6930008-3.4309998-2.2089996c-1.3460083-0.5130005-2.8480225-0.7709961-4.5050049-0.7709961
	c-1.7170105,0-3.2810059,0.2859955-4.697998,0.8569946c-1.4140015,0.5740051-2.6380005,1.3720016-3.6670227,2.4029999
	c-1.0289917,1.0279999-1.821991,2.2659988-2.3799744,3.7110062c-0.5580139,1.4429932-0.8370056,3.0389938-0.8370056,4.7819977
	c0,1.8029938,0.3070068,3.4319992,0.9219971,4.8899994c0.6139832,1.4579926,1.5019836,2.6969986,2.6589966,3.7099991
	c1.1579895,1.0169983,2.5599976,1.7959976,4.20401,2.3389969c1.644989,0.5429993,3.4960022,0.8160019,5.5569763,0.8160019
	c1.7150269,0,3.3670044-0.2009964,4.95401-0.6010056c1.5859985-0.3999939,2.9379883-0.9729919,4.053009-1.7159958
	l-2.4450073-4.9329987c-0.9159851,0.401001-1.9100037,0.7080002-2.9819946,0.9220047
	c-1.0710144,0.2129974-2.0360107,0.3199921-2.8950195,0.3199921c-3.5179749,0-6.625-1.2559967-7.3959961-3.7740021h15.5460205
	C342.1990051,71.8104095,342.2860107,70.9234009,342.2860107,69.8654022 M326.4790039,68.5034027
	c0.5889893-2.987999,2.2070007-4.4810028,4.8469849-4.4810028c1.28302,0,2.3260193,0.3899994,3.1270142,1.1710052
	c0.7969971,0.7830048,1.2839966,1.8860016,1.4589844,3.3099976H326.4790039z M514.9499512,69.8574066
	c0-1.7149963-0.2509766-3.2539978-0.7509766-4.6110077c-0.5020142-1.3569946-1.2230225-2.5169945-2.1669922-3.4759941
	c-0.9450073-0.9569969-2.0889893-1.6919975-3.4310303-2.2089958c-1.3459473-0.512001-2.8479614-0.7700043-4.5039673-0.7700043
	c-1.7180176,0-3.2819824,0.2860031-4.6990356,0.8560028c-1.4140015,0.5749969-2.6369629,1.3720016-3.6669922,2.4039955
	c-1.0289917,1.0279999-1.8219604,2.2660027-2.3800049,3.7110023c-0.5579834,1.4430008-0.8369751,3.0390015-0.8369751,4.7819977
	c0,1.8030014,0.3070068,3.4309998,0.9219971,4.8889999c0.6149902,1.4589996,1.5020142,2.6980057,2.6599731,3.7099991
	c1.1570435,1.0180054,2.559021,1.7960052,4.2030029,2.3390045c1.6450195,0.5439987,3.4960327,0.8170013,5.5570068,0.8170013
	c1.7150269,0,3.3670044-0.201004,4.9540405-0.6010056c1.5859985-0.4000015,2.9379883-0.9729996,4.0529785-1.7170029
	l-2.4450073-4.9319916c-0.9160156,0.401001-1.9089966,0.7079926-2.9819946,0.9219971
	c-1.0709839,0.211998-2.0360107,0.3199997-2.8950195,0.3199997c-3.5180054,0-6.625-1.2560043-7.3959961-3.7740021h15.5460205
	C514.8629761,71.8034058,514.9499512,70.9164047,514.9499512,69.8574066 M499.1430054,68.4963989
	c0.5889893-2.9879913,2.2069702-4.4809952,4.8469849-4.4809952c1.282959,0,2.3259888,0.3899994,3.1270142,1.1700058
	c0.7969971,0.7839966,1.2839966,1.8869934,1.4589844,3.3109894H499.1430054z"/>
</svg>
