<?xml version="1.0" encoding="utf-8"?>
<svg viewBox="0 0 500 500" xmlns="http://www.w3.org/2000/svg">
  <g transform="matrix(1, 0, 0, 1, -61.58496856689453, 51.1650276184082)">
    <title>Text</title>
    <text style="fill: rgb(235, 235, 235); font-family: Futura; font-size: 27px; white-space: pre;" transform="matrix(1, 0, 0, 1, 227.648575, 38.295979)"><tspan x="38.598" y="176.5">Collegiate Cyber</tspan><tspan x="38.598" dy="1em">​</tspan><tspan>Defense League</tspan></text>
    <text style="fill: rgb(235, 235, 235); font-family: Futura; font-size: 39px; white-space: pre;" x="266.246" y="184.228">Northeast</text>
  </g>
  <g transform="matrix(0.5297369360923767, 0, 0, 0.5297369360923767, 209.07809448242188, 95.3747787475586)" style="">
    <title>Northeast</title>
    <path style="fill: rgb(235, 235, 235);" id="RI" d="M -71.619 353.517 L -72.112 349.146 L -72.938 344.607 L -74.671 338.473 L -68.81 336.876 L -67.159 338.052 L -63.692 342.591 L -60.721 347.213 L -63.694 348.811 L -65.015 348.643 L -66.171 350.491 L -68.647 352.508 L -71.619 353.517 Z"/>
    <path style="fill: rgb(235, 235, 235);" id="CT" d="M -71.124 353.517 L -72.112 349.146 L -72.938 344.607 L -74.589 338.389 L -79.872 339.565 L -102.16 344.523 L -101.5 347.969 L -100.014 355.533 L -100.014 363.936 L -101.17 366.29 L -99.298 368.482 L -94.238 364.946 L -90.605 361.585 L -88.624 359.4 L -87.799 360.072 L -84.992 358.559 L -79.709 357.383 L -71.124 353.517 Z"/>
    <path style="fill: rgb(235, 235, 235);" id="MA" d="M -45.161 347.308 L -42.943 346.594 L -42.476 344.812 L -41.425 344.931 L -40.375 347.308 L -41.659 347.783 L -45.628 347.902 L -45.161 347.308 Z M -54.734 348.14 L -52.399 345.406 L -50.765 345.406 L -48.897 346.951 L -51.348 348.021 L -53.566 349.09 L -54.734 348.14 Z M -90.273 325.278 L -72.442 320.908 L -70.131 320.236 L -67.985 316.875 L -64.169 315.145 L -61.218 319.733 L -63.694 325.112 L -64.025 326.624 L -62.043 329.314 L -60.888 328.473 L -59.072 328.473 L -56.76 331.163 L -52.798 337.381 L -49.166 337.886 L -46.854 336.877 L -45.038 335.028 L -45.864 332.171 L -48.01 330.49 L -49.496 331.331 L -50.486 329.986 L -49.991 329.482 L -47.845 329.314 L -46.029 330.154 L -44.048 332.675 L -43.057 335.701 L -42.727 338.222 L -47.019 339.735 L -50.982 341.751 L -54.944 346.458 L -56.925 347.97 L -56.925 346.962 L -54.449 345.449 L -53.954 343.6 L -54.779 340.407 L -57.751 341.92 L -58.576 343.432 L -58.081 345.785 L -60.887 347.297 L -63.692 342.591 L -67.159 338.052 L -68.81 336.876 L -74.671 338.473 L -79.872 339.565 L -102.16 344.523 L -103.151 338.557 L -102.49 327.548 L -97.207 326.623 L -90.273 325.278"/>
    <path style="fill: rgb(235, 235, 235);" id="ME" d="M -21.429 246.955 L -19.448 249.141 L -17.137 253.006 L -17.137 255.023 L -19.283 259.897 L -21.264 260.57 L -24.731 263.763 L -29.684 269.478 C -29.684 269.478 -30.344 269.478 -31.005 269.478 C -31.665 269.478 -31.995 267.293 -31.995 267.293 L -33.812 267.461 L -34.802 268.974 L -37.279 270.486 L -38.269 271.999 L -36.618 273.512 L -37.113 274.184 L -37.609 277.041 L -39.59 276.873 L -39.59 275.193 L -39.92 273.848 L -41.406 274.184 L -43.222 270.823 L -45.368 272.167 L -44.048 273.68 L -43.717 274.856 L -44.543 276.201 L -44.213 279.395 L -44.048 281.075 L -45.699 283.765 L -48.67 284.269 L -49.001 287.294 L -54.449 290.488 L -55.77 290.992 L -57.421 289.479 L -60.557 293.177 L -59.567 296.538 L -61.053 297.883 L -61.218 302.421 L -62.829 310.345 L -65.343 309.143 L -65.838 305.949 L -69.801 304.773 L -70.131 301.916 L -77.561 277.544 L -82.428 262.183 L -79.934 261.824 L -78.388 262.251 L -78.388 259.561 L -77.563 253.847 L -74.921 248.972 L -73.435 244.77 L -75.416 242.249 L -75.416 236.03 L -74.591 235.022 L -73.765 232.165 L -73.93 230.652 L -74.096 225.61 L -72.279 220.567 L -69.308 211.323 L -67.161 206.953 L -65.841 206.953 L -64.52 207.121 L -64.52 208.298 L -63.199 210.651 L -60.392 211.323 L -59.567 210.483 L -59.567 209.474 L -55.439 206.449 L -53.623 204.6 L -52.137 204.768 L -46.029 207.289 L -44.048 208.298 L -34.802 239.392 L -28.693 239.392 L -27.868 241.409 L -27.703 246.451 L -24.731 248.804 L -23.906 248.804 L -23.741 248.3 L -24.236 247.124 L -21.429 246.955 Z M -42.806 278.3 L -41.238 276.703 L -39.834 277.796 L -39.256 280.317 L -40.99 281.241 L -42.806 278.3 Z M -35.954 272.165 L -34.138 274.098 C -34.138 274.098 -32.818 274.182 -32.818 273.846 C -32.818 273.51 -32.57 271.745 -32.57 271.745 L -31.662 270.904 L -32.487 269.055 L -34.551 269.812 L -35.954 272.165 Z"/>
    <path style="fill: rgb(235, 235, 235);" id="NH" d="M -64.167 315.106 L -63.859 313.514 L -62.746 310.093 L -65.343 309.143 L -65.838 305.949 L -69.801 304.773 L -70.131 301.916 L -77.561 277.544 L -82.26 262.424 L -83.176 262.419 L -83.836 264.099 L -84.497 263.595 L -85.487 262.587 L -86.973 264.604 L -87.95 270.307 L -87.632 276.2 L -85.65 279.057 L -85.65 283.259 L -89.448 287.461 L -92.089 288.637 L -92.089 289.814 L -90.934 291.663 L -90.934 300.571 L -91.759 310.151 L -91.924 315.194 L -90.934 316.538 L -91.099 321.245 L -91.594 323.093 L -90.108 325.194 L -72.442 320.908 L -70.131 320.236 L -67.985 316.875 L -64.167 315.106 Z"/>
    <path style="fill: rgb(235, 235, 235);" id="VT" d="M -102.325 327.8 L -103.151 321.917 L -106.288 310.488 L -106.948 310.151 L -109.92 308.807 L -109.094 305.781 L -109.92 303.596 L -112.561 298.89 L -111.571 294.856 L -112.396 289.478 L -114.873 282.755 L -115.696 277.637 L -87.963 270.15 L -87.632 276.2 L -85.65 279.057 L -85.65 283.259 L -89.448 287.461 L -92.089 288.637 L -92.089 289.814 L -90.934 291.663 L -90.934 300.571 L -91.759 310.151 L -91.924 315.194 L -90.934 316.538 L -91.099 321.245 L -91.594 323.093 L -90.108 325.194 L -97.207 326.623 L -102.325 327.8 Z"/>
    <path style="fill: rgb(235, 235, 235);" id="NY" d="M -118.505 364.441 L -119.661 363.432 L -122.302 363.264 L -124.614 361.247 L -127.09 355.701 L -130.159 354.733 L -132.538 352.507 L -151.525 356.709 L -195.441 365.785 L -204.522 367.298 L -205.275 360.101 L -204.25 359.397 L -203.183 358.663 L -202.542 358.223 L -201.221 357.047 L -200.231 355.366 L -198.415 354.189 L -196.434 352.34 L -195.938 350.66 L -193.792 347.802 L -192.636 346.794 L -192.801 345.785 L -194.122 342.592 L -195.938 342.424 L -197.919 336.037 L -194.948 334.188 L -190.49 332.675 L -186.363 331.331 L -183.061 330.826 L -176.622 330.658 L -174.641 332.003 L -172.99 332.171 L -170.843 330.826 L -168.202 329.65 L -162.919 329.146 L -160.772 327.297 L -158.956 323.935 L -157.305 321.918 L -155.159 321.918 L -153.178 320.742 L -153.013 318.389 L -154.498 316.204 L -154.829 314.691 L -153.673 312.506 L -153.673 310.993 L -155.489 310.993 L -157.305 310.153 L -158.131 308.976 L -158.296 306.287 L -152.352 300.572 L -151.692 299.732 L -150.206 296.707 L -147.234 292 L -144.427 288.135 L -142.281 285.613 L -139.815 283.715 L -136.668 282.42 L -131.055 281.075 L -127.753 281.243 L -123.13 279.731 L -115.404 277.577 L -114.873 282.755 L -112.396 289.478 L -111.571 294.856 L -112.561 298.89 L -109.92 303.596 L -109.094 305.781 L -109.92 308.807 L -106.948 310.151 L -106.288 310.488 L -103.151 321.917 L -102.656 327.295 L -103.151 338.557 L -102.325 344.271 L -101.5 347.969 L -100.014 355.533 L -100.014 363.936 L -101.17 366.29 L -99.291 368.361 L -99.521 369.989 L -101.502 371.837 L -101.172 373.182 L -99.851 372.846 L -98.365 371.501 L -96.054 368.812 L -94.898 368.14 L -93.247 368.812 L -90.936 368.98 L -82.846 364.946 L -79.874 362.089 L -78.553 360.576 L -74.261 362.257 L -77.728 365.955 L -81.69 368.98 L -88.954 374.527 L -91.596 375.535 L -97.54 377.552 L -101.667 378.729 L -103.214 378.175 L -103.811 374.693 L -103.316 371.836 L -103.481 369.651 L -106.123 368.475 L -110.745 367.466 L -114.708 366.29 L -118.505 364.441 Z"/>
    <path id="NY_CT" style="fill-opacity: 0; stroke-width: 1.06612pt; stroke-opacity: 1; fill: rgb(41, 41, 41); paint-order: fill; stroke: rgb(41, 41, 41);" d="M -99.158 368.573 L -101.17 366.29 L -100.014 363.936 L -100.014 355.533 L -101.5 347.969 L -102.325 344.271"/>
    <path id="NY_MA" style="fill-opacity: 0; stroke-width: 1.06612pt; stroke-opacity: 1; fill: rgb(41, 41, 41); paint-order: fill; stroke: rgb(41, 41, 41);" d="M -102.325 344.271 L -103.151 338.557 L -102.656 327.295"/>
    <path id="NY_VT" style="fill-opacity: 0; stroke-width: 1.06612pt; stroke-opacity: 1; fill: rgb(41, 41, 41); paint-order: fill; stroke: rgb(41, 41, 41);" d="M -102.656 327.295 L -103.151 321.917 L -106.288 310.488 L -106.948 310.151 L -109.92 308.807 L -109.094 305.781 L -109.92 303.596 L -112.561 298.89 L -111.571 294.856 L -112.396 289.478 L -114.873 282.755 L -115.533 277.544"/>
    <path id="VT_NH" style="fill-opacity: 0; stroke-width: 1.06612pt; stroke-opacity: 1; fill: rgb(41, 41, 41); paint-order: fill; stroke: rgb(41, 41, 41);" d="M -87.962 269.981 L -87.632 276.2 L -85.65 279.057 L -85.65 283.259 L -89.448 287.461 L -92.089 288.637 L -92.089 289.814 L -90.934 291.663 L -90.934 300.571 L -91.759 310.151 L -91.924 315.194 L -90.934 316.538 L -91.099 321.245 L -91.594 323.093 L -89.943 325.11"/>
    <path id="VT_MA" style="fill-opacity: 0; stroke-width: 1.06612pt; stroke-opacity: 1; fill: rgb(41, 41, 41); paint-order: fill; stroke: rgb(41, 41, 41);" d="M -102.325 327.8 L -97.207 326.623 L -90.273 325.278"/>
    <path id="NH_MA" style="fill-opacity: 0; stroke-width: 1.06612pt; stroke-opacity: 1; fill: rgb(41, 41, 41); paint-order: fill; stroke: rgb(41, 41, 41);" d="M -90.273 325.278 L -72.442 320.908 L -70.131 320.236 L -67.985 316.875 L -63.817 314.927"/>
    <path id="NH_ME" style="fill-opacity: 0; stroke-width: 1.06612pt; stroke-opacity: 1; fill: rgb(41, 41, 41); stroke: rgb(41, 41, 41); paint-order: fill;" d="M -62.788 310.369 L -65.343 309.143 L -65.838 305.949 L -69.801 304.773 L -70.131 301.916 L -77.561 277.544 L -82.513 262.081"/>
    <path id="MA_CT" style="fill-opacity: 0; stroke-width: 1.06612pt; stroke-opacity: 1; fill: rgb(41, 41, 41); paint-order: fill; stroke: rgb(41, 41, 41);" d="M -101.995 344.776 L -79.872 339.565 L -74.589 338.389"/>
    <path id="CT_RI" style="fill-opacity: 0; stroke-width: 1.06612pt; stroke-opacity: 1; fill: rgb(41, 41, 41); paint-order: fill; stroke: rgb(41, 41, 41);" d="M -74.589 338.389 L -72.938 344.607 L -72.112 349.146 L -71.452 353.516"/>
    <path id="RI_MA" style="fill-opacity: 0; stroke-width: 1.06612pt; stroke-opacity: 1; fill: rgb(41, 41, 41); paint-order: fill; stroke: rgb(41, 41, 41);" d="M -74.754 338.557 L -68.81 336.876 L -67.159 338.052 L -63.692 342.591 L -60.72 347.297"/>
  </g>
</svg>
