<svg version="1.1" id="Layer_1" xmlns:x="ns_extend;" xmlns:i="ns_ai;" xmlns:graph="ns_graphs;" xmlns="http://www.w3.org/2000/svg" xmlns:xlink="http://www.w3.org/1999/xlink" x="0px" y="0px" viewBox="0 0 400 100" style="enable-background:new 0 0 400 100;" xml:space="preserve">
 <style type="text/css">
  .st0{fill:#440099;}
	.st1{fill:#2C0076;}
	.st2{clip-path:url(#SVGID_2_);fill:url(#SVGID_3_);}
 </style>
 <metadata>
  <sfw xmlns="ns_sfw;">
   <slices>
   </slices>
   <sliceSourceBounds bottomLeftOrigin="true" height="100" width="400" x="-3.7" y="-249.7">
   </sliceSourceBounds>
  </sfw>
 </metadata>
 <g>
  <g>
   <path class="st0" d="M391.7,29.2L391.7,29.2c0-2.3,1.8-4.2,4.2-4.2c2.3,0,4.2,1.9,4.2,4.1v0c0,2.3-1.8,4.2-4.2,4.2
			C393.5,33.3,391.7,31.5,391.7,29.2 M399.6,29.2L399.6,29.2c0-2.1-1.6-3.8-3.8-3.8c-2.2,0-3.8,1.7-3.8,3.8v0c0,2.1,1.6,3.8,3.8,3.8
			C398,33,399.6,31.2,399.6,29.2 M394.2,26.9h1.9c0.5,0,1,0.2,1.3,0.4c0.2,0.2,0.3,0.5,0.3,0.8v0c0,0.7-0.5,1.1-1.1,1.3l1.3,1.7
			h-0.8l-1.2-1.6h0h-1.1v1.6h-0.6V26.9z M396,29c0.6,0,1-0.3,1-0.8v0c0-0.4-0.4-0.7-1-0.7h-1.3V29H396z">
   </path>
   <path class="st1" d="M252.6,99.6H250V82.2h2.6v3c1.1-1.9,2.9-3.4,5.9-3.4c4.2,0,6.6,2.8,6.6,7v10.8h-2.6V89.4
			c0-3.2-1.7-5.3-4.7-5.3c-3,0-5.1,2.2-5.1,5.5V99.6z">
   </path>
   <path class="st1" d="M282.4,89.9c-0.3-3.2-2.1-5.9-5.5-5.9c-3,0-5.2,2.5-5.6,5.9H282.4z M277.4,97.7c2.4,0,4-1,5.4-2.5l1.6,1.4
			c-1.7,2-3.8,3.3-7.1,3.3c-4.7,0-8.6-3.7-8.6-9.1c0-5.1,3.5-9.1,8.2-9.1c5.1,0,8,4.1,8,9.2c0,0.2,0,0.5,0,0.8h-13.6
			C271.7,95.6,274.4,97.7,277.4,97.7">
   </path>
   <path class="st1" d="M291.8,94.6c0,2.1,1.2,2.9,2.9,2.9c0.9,0,1.6-0.2,2.5-0.6v2.2c-0.9,0.5-1.9,0.7-3.1,0.7
			c-2.8,0-4.8-1.4-4.8-4.9V84.5h-2.4v-2.3h2.4v-5.3h2.6v5.3h5.4v2.3h-5.4V94.6z">
   </path>
   <polygon class="st1" points="311.7,82.1 307.1,96.2 302.6,82.2 299.9,82.2 305.9,99.7 308.2,99.7 312.8,86 317.4,99.7 319.6,99.7 
			325.7,82.2 323,82.2 318.5,96.2 313.9,82.1 		">
   </polygon>
   <path class="st1" d="M336.2,84.1c-3.7,0-6.3,3-6.3,6.8c0,3.8,2.7,6.8,6.4,6.8c3.7,0,6.3-3,6.3-6.7
			C342.6,87.1,339.8,84.1,336.2,84.1 M336.2,100c-5.1,0-8.9-4.1-8.9-9.1c0-5,3.8-9.1,9-9.1c5.1,0,8.9,4.1,8.9,9.1
			C345.2,95.8,341.4,100,336.2,100">
   </path>
   <path class="st1" d="M351.7,99.6h-2.6V82.2h2.6v4.5c1.3-2.9,3.7-5,7-4.9v2.8h-0.2c-3.8,0-6.8,2.7-6.8,8V99.6z">
   </path>
   <polygon class="st1" points="361.7,75 361.7,99.6 364.2,99.6 364.2,95 367.7,91.5 373.8,99.6 376.9,99.6 369.5,89.7 376.7,82.2 
			373.5,82.2 364.2,92 364.2,75 		">
   </polygon>
   <path class="st1" d="M385.6,99.9c-2.5,0-5.2-1-7.1-2.6l1.3-1.9c1.9,1.4,3.9,2.2,5.9,2.2c2.1,0,3.5-1.1,3.5-2.8v-0.1
			c0-1.8-2-2.4-4.3-3.1c-2.7-0.8-5.7-1.7-5.7-4.9v-0.1c0-3,2.4-5,5.8-5c2.1,0,4.4,0.7,6.2,1.9l-1.2,2c-1.6-1.1-3.4-1.7-5.1-1.7
			c-2,0-3.3,1.1-3.3,2.5v0.1c0,1.7,2.1,2.3,4.4,3c2.7,0.8,5.5,1.8,5.5,5v0.1C391.7,98,389,99.9,385.6,99.9">
   </path>
   <polygon class="st0" points="116.7,16.7 152.8,16.7 152.8,21.8 122.3,21.8 122.3,38.9 149.6,38.9 149.6,44 122.3,44 122.3,61.5 
			153.2,61.5 153.2,66.7 116.7,66.7 		">
   </polygon>
   <polygon class="st0" points="172.6,47.9 158.7,29.7 165,29.7 175.9,44 186.9,29.7 193,29.7 179,47.7 193.6,66.7 187.2,66.7 
			175.8,51.6 164.3,66.7 158.2,66.7 		">
   </polygon>
   <path class="st0" d="M202.9,56.9V34.6h-5.1v-4.9h5.1V18.6h5.5v11.1h11.7v4.9h-11.7v21.6c0,4.5,2.5,6.1,6.2,6.1
			c1.9,0,3.4-0.4,5.4-1.3v4.7c-1.9,1-4,1.6-6.6,1.6C207.4,67.3,202.9,64.4,202.9,56.9">
   </path>
   <path class="st0" d="M227.8,29.7h5.5v9.6c2.7-6.1,8.1-10.6,15.1-10.3V35h-0.4c-8.1,0-14.6,5.8-14.6,16.9v14.7h-5.5V29.7z">
   </path>
   <path class="st0" d="M270,62.7c5.1,0,8.6-2.1,11.6-5.2l3.4,3.1c-3.7,4.1-8.2,6.9-15.2,6.9c-10.1,0-18.4-7.8-18.4-19.3
			c0-10.7,7.5-19.3,17.7-19.3c10.9,0,17.2,8.7,17.2,19.6c0,0.5,0,1.1-0.1,1.9H257C257.7,58.2,263.5,62.7,270,62.7 M280.7,46
			c-0.6-6.7-4.5-12.4-11.8-12.4c-6.4,0-11.2,5.3-12,12.4H280.7z">
   </path>
   <path class="st0" d="M293.9,29.7h5.5V36c2.4-3.6,5.7-7,11.9-7c6,0,9.9,3.2,11.9,7.4c2.6-4.1,6.6-7.4,13-7.4
			c8.5,0,13.7,5.7,13.7,14.9v22.9h-5.5V45.1c0-7.1-3.6-11.1-9.6-11.1c-5.6,0-10.2,4.1-10.2,11.4v21.3h-5.4V45c0-6.9-3.6-11-9.5-11
			s-10.3,4.9-10.3,11.6v21.1h-5.5V29.7z">
   </path>
   <path class="st0" d="M375.3,62.7c5.1,0,8.6-2.1,11.6-5.2l3.4,3.1c-3.7,4.1-8.2,6.9-15.2,6.9c-10.1,0-18.4-7.8-18.4-19.3
			c0-10.7,7.5-19.3,17.7-19.3c10.9,0,17.2,8.7,17.2,19.6c0,0.5,0,1.1-0.1,1.9h-29.3C363.1,58.2,368.8,62.7,375.3,62.7 M386.1,46
			c-0.6-6.7-4.5-12.4-11.8-12.4c-6.4,0-11.2,5.3-12,12.4H386.1z">
   </path>
  </g>
  <g>
   <defs>
    <path id="SVGID_1_" d="M34.7,33.3c-0.8,0-1.4,0.6-1.4,1.4v13.9c0,0.8,0.6,1.4,1.4,1.4h30.8c0.8,0,1.4-0.6,1.4-1.4V34.7
				c0-0.8-0.6-1.4-1.4-1.4H34.7z M0,66.7L0,66.7L0,66.7L0,66.7z M1.4,0C0.6,0,0,0.6,0,1.4v65.3h0l14.2,14.2c1.6,1.6,3.7,2.4,5.9,2.4
				h56.3c0.8,0,1.4-0.6,1.4-1.4V68.1c0-0.8-0.6-1.4-1.4-1.4H0l14.2-14.2c1.6-1.6,2.4-3.7,2.4-5.9V18.1c0-0.8,0.6-1.4,1.4-1.4h58.3
				c0.8,0,1.4-0.6,1.4-1.4V1.4c0-0.8-0.6-1.4-1.4-1.4H1.4z">
    </path>
   </defs>
   <clipPath id="SVGID_2_">
    <use href="#SVGID_1_" style="overflow:visible;">
    </use>
   </clipPath>
   <linearGradient id="SVGID_3_" gradientUnits="userSpaceOnUse" x1="-87.8675" y1="451.4815" x2="-84.1638" y2="451.4815" gradientTransform="matrix(0 22.5 22.5 0 -10119.4463 1977.0183)">
    <stop offset="0" style="stop-color:#440099">
    </stop>
    <stop offset="0.2741" style="stop-color:#410593">
    </stop>
    <stop offset="0.6358" style="stop-color:#391283">
    </stop>
    <stop offset="0.9957" style="stop-color:#2E246B">
    </stop>
    <stop offset="1" style="stop-color:#2C0076">
    </stop>
   </linearGradient>
   <rect y="0" class="st2" width="77.8" height="83.3">
   </rect>
  </g>
 </g>
</svg>